<svg width="129" height="37" xmlns="http://www.w3.org/2000/svg"><g fill="none" fill-rule="evenodd"><path d="M62.115 27.34c.07.305-.046.61-.28.61h-2.553c-.773 0-1.218-.54-1.218-1.242v-5.152c0-1.172-.796-1.687-1.757-1.687-.773 0-1.475.398-2.107 1.03v4.895a7.69 7.69 0 0 0 .187 1.546c.07.305-.047.609-.281.609h-2.553c-.773 0-1.218-.539-1.218-1.241v-5.153c0-1.171-.796-1.686-1.756-1.686-.773 0-1.5.398-2.109 1.03v6.581a.47.47 0 0 1-.468.468h-2.95c-.259 0-.446-.21-.446-.468V16.824c0-.258.187-.469.445-.469h2.202c.327.211.655.61.913.937.843-.585 1.92-1.077 3.185-1.077 1.476 0 2.88.585 3.794 1.663.937-.82 2.272-1.663 3.935-1.663 2.552 0 4.848 1.733 4.848 4.637v4.942a7.69 7.69 0 0 0 .187 1.546zm4.89-14.123c-1.101 0-2.015-.89-2.015-2.014 0-1.1.914-1.99 2.014-1.99 1.101 0 2.015.89 2.015 1.99a2.014 2.014 0 0 1-2.015 2.014zm1.475 3.138a.47.47 0 0 1 .468.469v10.633c0 .304-.187.491-.445.491h-2.201c-.773 0-1.218-.538-1.218-1.264v-9.86c0-.258.187-.469.468-.469h2.928zM84.025 27.34c.071.304-.046.609-.28.609h-2.553c-.773 0-1.218-.539-1.218-1.242v-5.152c0-1.148-.797-1.71-1.733-1.71-.773 0-1.5.328-2.132.89v6.745a.47.47 0 0 1-.469.468h-2.95c-.258 0-.446-.21-.446-.468V16.824c0-.258.188-.469.445-.469h2.202c.328.211.656.586.914.937.843-.609 1.92-1.077 3.185-1.077 2.553 0 4.848 1.71 4.848 4.637v4.942a7.69 7.69 0 0 0 .187 1.546zm5.03-14.123c-1.1 0-2.014-.89-2.014-2.014 0-1.1.913-1.99 2.014-1.99 1.101 0 2.014.89 2.014 1.99a2.014 2.014 0 0 1-2.014 2.014zm1.476 3.138a.47.47 0 0 1 .468.469v10.633c0 .304-.187.491-.445.491h-2.202c-.772 0-1.217-.538-1.217-1.264v-9.86c0-.258.187-.469.468-.469h2.928zm14.89 0c.257 0 .444.21.444.468V27.48c0 .257-.187.468-.445.468h-2.342a9.168 9.168 0 0 1-.773-.937c-.843.61-1.92 1.077-3.185 1.077-2.53 0-4.848-1.732-4.848-4.637v-4.988a7.69 7.69 0 0 0-.187-1.546c-.07-.304.047-.609.281-.609h2.553c.773 0 1.218.539 1.218 1.242v5.199c0 1.171.796 1.687 1.756 1.687.773 0 1.5-.399 2.108-1.031v-6.581a.47.47 0 0 1 .469-.469h2.95zm22.946 10.985c.07.305-.046.61-.28.61h-2.553c-.773 0-1.218-.54-1.218-1.242v-5.152c0-1.172-.797-1.687-1.757-1.687-.773 0-1.475.398-2.108 1.03v4.895a7.69 7.69 0 0 0 .188 1.546c.07.305-.047.609-.281.609h-2.553c-.773 0-1.218-.539-1.218-1.241v-5.153c0-1.171-.796-1.686-1.757-1.686-.772 0-1.499.398-2.108 1.03v6.581a.47.47 0 0 1-.468.468h-2.951c-.258 0-.445-.21-.445-.468V16.824c0-.258.187-.469.445-.469h2.201c.328.211.656.61.914.937.843-.585 1.92-1.077 3.185-1.077 1.476 0 2.88.585 3.794 1.663.937-.82 2.272-1.663 3.934-1.663 2.553 0 4.848 1.733 4.848 4.637v4.942a7.69 7.69 0 0 0 .188 1.546z" fill="#5C5E5E"/><path d="M16.37 31.265L5.31 24.878V15.17l9.733 5.62a2.654 2.654 0 0 0 2.655 0l9.733-5.62v9.708L16.37 31.265zm0-25.545l8.408 4.853-8.408 4.854-8.407-4.854L16.37 5.72zm16.369 4.816a3.555 3.555 0 0 0-.014-.238c-.004-.024-.005-.047-.008-.07a2.38 2.38 0 0 0-.1-.448l-.016-.057a2.722 2.722 0 0 0-.082-.21c-.008-.016-.016-.036-.026-.054a2.636 2.636 0 0 0-.238-.414c-.011-.016-.024-.032-.034-.048a2.594 2.594 0 0 0-.14-.175l-.041-.043c-.04-.041-.079-.084-.12-.123-.02-.017-.038-.037-.059-.055a2.978 2.978 0 0 0-.16-.134c-.018-.015-.039-.028-.057-.041a3.21 3.21 0 0 0-.2-.132l-.032-.02L17.698.357a2.653 2.653 0 0 0-2.655 0L1.328 8.275l-.03.018-.073.046a2.978 2.978 0 0 0-.125.084c-.02.016-.042.03-.061.045A2.887 2.887 0 0 0 .88 8.6l-.062.057c-.04.04-.079.08-.115.12l-.044.045a2.858 2.858 0 0 0-.138.174c-.012.017-.025.033-.036.05a2.626 2.626 0 0 0-.346.676l-.017.059a2.262 2.262 0 0 0-.045.161l-.02.08a2.428 2.428 0 0 0-.053.434L0 10.538 0 10.573v15.838c0 .948.507 1.824 1.328 2.299l13.715 7.919a2.654 2.654 0 0 0 2.655 0l13.714-7.92a2.655 2.655 0 0 0 1.329-2.298V10.573l-.002-.037z" fill="#B2C6EC"/></g></svg>