<svg width="60" height="58" viewBox="0 0 60 58" fill="none" xmlns="http://www.w3.org/2000/svg">
<path fill-rule="evenodd" clip-rule="evenodd" d="M41.4734 40.0966H47.2222C50.4106 40.0966 53.4782 38.744 55.4589 36.5217C58.3333 33.8889 59.9999 30.1691 59.9999 26.3044C59.9999 18.6957 53.8164 12.5121 46.2077 12.5121C45.7004 12.5121 45.169 12.5604 44.6618 12.6087C42.7536 5.2657 36.1111 0 28.285 0C18.9613 0 11.3768 7.58454 11.3768 16.9082V17.343C5.09656 17.343 -6.10352e-05 22.4396 -6.10352e-05 28.7198C-6.10352e-05 35 5.09656 40.0966 11.3768 40.0966H18.5265C19.855 40.0966 20.942 39.0097 20.942 37.6812C20.942 36.3527 19.855 35.2657 18.5265 35.2657H11.3768C7.75356 35.2657 4.83086 32.3188 4.83086 28.7198C4.83086 25.1208 7.75356 22.1739 11.3768 22.1739H14.0821C14.8067 22.1739 15.483 21.8599 15.942 21.3044C16.4009 20.7488 16.5941 20 16.4492 19.2995C16.2801 18.5024 16.2077 17.7053 16.2077 16.9324C16.2077 10.2657 21.6425 4.83092 28.285 4.83092C34.541 4.83092 39.7101 9.51691 40.3381 15.7005C40.4106 16.4251 40.8212 17.0773 41.4251 17.4879C42.0531 17.8744 42.8019 17.9952 43.5024 17.7536C44.3719 17.4638 45.3139 17.3188 46.2318 17.3188C51.1594 17.3188 55.1932 21.3527 55.1932 26.2802C55.1932 28.8406 54.1545 31.1836 52.0772 33.0918C50.797 34.4928 49.0821 35.2657 47.2222 35.2657H41.4734C40.1449 35.2657 39.0579 36.3527 39.0579 37.6812C39.0579 39.0097 40.1449 40.0966 41.4734 40.0966ZM42.4625 46.288L31.3874 57.4848H31.144L31.0223 57.6065H30.7789H30.6572H30.5355H30.4138H30.0487H29.927H29.8053H29.6836L29.5619 57.4848H29.4402L18.3651 46.288C17.8783 45.8012 17.8783 44.8276 18.3651 44.3408C18.8519 43.854 19.8256 43.854 20.3124 44.3408L29.1967 53.1034L29.1967 27.3387C29.1967 26.6085 29.8053 26 30.5355 26C31.2657 26 31.8742 26.6085 31.8742 27.3387L31.8742 53.1034L40.5152 44.3408C41.002 43.854 41.9757 43.854 42.4625 44.3408C42.9493 44.8276 42.9493 45.8012 42.4625 46.288Z" fill="#30CFA1"/>
</svg>
