<svg width="56" height="60" viewBox="0 0 56 60" fill="none" xmlns="http://www.w3.org/2000/svg">
<path d="M41.8018 52.3123C41.8018 53.033 41.2613 53.5736 40.5405 53.5736C39.8198 53.5736 39.2793 52.973 39.2793 52.3123V45.4655H28.9489V52.3123C28.9489 53.033 28.3483 53.5736 27.6877 53.5736C26.967 53.5736 26.4264 52.973 26.4264 52.3123V45.4655H16.0961V52.3123C16.0961 53.033 15.4955 53.5736 14.8348 53.5736C14.1141 53.5736 13.5736 52.973 13.5736 52.3123V45.4655H8.46847C7.74775 45.4655 7.20721 44.9249 7.20721 44.2042C7.20721 43.4835 7.80781 42.9429 8.46847 42.9429H13.5736V33.9339H8.46847C7.74775 33.9339 7.20721 33.3934 7.20721 32.6727C7.20721 31.952 7.80781 31.4114 8.46847 31.4114H13.5736V24.5045C13.5736 23.7838 14.1742 23.2432 14.8348 23.2432C15.5556 23.2432 16.0961 23.8438 16.0961 24.5045V31.3514H26.3664V24.5045C26.3664 23.7838 26.967 23.2432 27.6276 23.2432C28.3483 23.2432 28.8889 23.8438 28.8889 24.5045V31.3514H39.1592V24.5045C39.1592 23.7838 39.6997 23.2432 40.4204 23.2432C41.1411 23.2432 41.6817 23.8438 41.6817 24.5045V31.3514H46.8468C47.5676 31.3514 48.1081 31.952 48.1081 32.6126C48.1081 33.3333 47.5676 33.8739 46.8468 33.8739H41.8018V42.8829H46.8468C47.5676 42.8829 48.1081 43.4234 48.1081 44.1441C48.1081 44.8649 47.5676 45.4054 46.8468 45.4054H41.8018V52.3123ZM4.26426 16.8168H51.051V13.5135C51.051 12.2523 50.5105 11.0511 49.6697 10.2102C48.8889 9.36937 47.6877 8.82883 46.4264 8.82883H45.2853V11.2913C45.2853 12.4925 44.3243 13.3934 43.1832 13.3934C41.982 13.3934 41.0811 12.4324 41.0811 11.2913V8.82883H14.2943V11.2913C14.2943 12.4925 13.3333 13.3934 12.1922 13.3934C10.991 13.3934 10.0901 12.4324 10.0901 11.2913V8.82883H8.88889C7.62763 8.82883 6.42643 9.36937 5.58559 10.2102C4.8048 11.0511 4.26426 12.1922 4.26426 13.5135V16.8168ZM51.051 21.0811H4.26426V51.0511C4.26426 52.3123 4.8048 53.5135 5.64565 54.3544C6.48649 55.1952 7.62763 55.7357 8.94895 55.7357H46.4264C47.6877 55.7357 48.8889 55.1952 49.7297 54.3544C50.5706 53.5135 51.051 52.3724 51.051 51.1111V21.0811ZM8.88889 4.56456H10.03V2.1021C10.0901 0.960961 10.991 0 12.1922 0C13.3934 0 14.2943 0.960961 14.2943 2.1021V4.56456H40.961V2.1021C41.021 0.960961 41.982 0 43.1231 0C44.3243 0 45.2252 0.960961 45.2252 2.1021V4.56456H46.3664C48.8288 4.56456 51.0511 5.58559 52.6727 7.20721L52.7327 7.26727C54.2943 8.88889 55.3153 11.1111 55.3153 13.5135V18.9189V18.979V19.039V51.1111C55.3153 53.5736 54.2943 55.7958 52.6727 57.4174C51.1111 58.979 48.8889 60 46.4264 60H8.88889C6.42643 60 4.2042 58.979 2.58258 57.3574C1.02102 55.7958 0 53.5135 0 51.1111V19.039V18.979V18.9189V13.5135C0 11.0511 1.02102 8.82883 2.64264 7.20721C4.2042 5.58559 6.48649 4.56456 8.88889 4.56456ZM16.0961 33.9339V42.9429H26.3664V33.9339H16.0961ZM28.9489 33.9339V42.9429H39.2192V33.9339H28.9489Z" fill="#30CFA1"/>
</svg>
