<?xml version="1.0" encoding="UTF-8"?>
<!--Icons from directory ""-->
<svg xmlns="http://www.w3.org/2000/svg" xmlns:xlink="http://www.w3.org/1999/xlink" width="24" height="816" viewBox="0 0 24 816">
   <symbol viewbox="0 0 24 24" id="alert">
      <path d="M4.201 19.013l7.8-13.357L19.8 19.013H4.2zm17.394-.809L13.223 3.866C12.887 3.29 12.443 3 12 3c-.443 0-.885.288-1.223.866L2.406 18.204C1.5 19.754 2.16 21 3.872 21h16.257c1.712 0 2.368-1.252 1.466-2.796zm-10.603-7.7v2.524c0 .57.451 1.03 1.008 1.03.557 0 1.008-.46 1.008-1.03v-2.523c0-.569-.45-1.029-1.008-1.029-.557 0-1.008.46-1.008 1.029zM12 15.6c-.557 0-1.008.46-1.008 1.028 0 .57.451 1.03 1.008 1.03.557 0 1.008-.46 1.008-1.03 0-.567-.45-1.028-1.008-1.028z" fill="currentColor" />
   </symbol>
   <symbol viewbox="0 0 24 24" id="back">
      <path d="M10.998 13v2.014a.986.986 0 0 1-1.683.697l-3.027-3.015a.986.986 0 0 1 0-1.394l3.027-3.013a.984.984 0 0 1 1.683.697V11H18a1 1 0 0 1 0 2h-7.002z" fill="currentColor" />
   </symbol>
   <symbol viewbox="0 0 24 24" id="backorder">
      <path d="M16.351 14.08h-5a.857.857 0 1 0 0 1.713h5a.857.857 0 1 0 0-1.714m-7.701 0a.857.857 0 1 0 0 1.714.857.857 0 0 0 0-1.714m0-3.658a.857.857 0 1 0 0 1.714.857.857 0 0 0 0-1.714m7.701 0h-5a.857.857 0 1 0 0 1.714h5a.857.857 0 1 0 0-1.714m3.821-1.154a.828.828 0 0 0-.828.828V17.607A2.347 2.347 0 0 1 17 19.951H8a2.346 2.346 0 0 1-2.343-2.344v-9A2.346 2.346 0 0 1 8 6.263h7.185l-1.209 1.21a.827.827 0 1 0 1.171 1.17l2.615-2.615a.827.827 0 0 0 0-1.17l-2.615-2.616a.829.829 0 0 0-1.171 1.171l1.194 1.194H9c-3.2 0-5 1.8-5 4v9c0 2.2 1.8 4 4 4h9c2.201 0 4-1.8 4-4v-7.512a.827.827 0 0 0-.828-.828" fill="currentColor" />
   </symbol>
   <symbol viewbox="0 0 24 24" id="block-view">
      <path d="M4 15.006C4 13.898 4.887 13 6.006 13h2.988c1.108 0 2.006.887 2.006 2.006v2.988A1.999 1.999 0 0 1 8.994 20H6.006A1.999 1.999 0 0 1 4 17.994v-2.988zm9 0c0-1.108.887-2.006 2.006-2.006h2.988c1.108 0 2.006.887 2.006 2.006v2.988A1.999 1.999 0 0 1 17.994 20h-2.988A1.999 1.999 0 0 1 13 17.994v-2.988zm-9-9C4 4.898 4.887 4 6.006 4h2.988C10.102 4 11 4.887 11 6.006v2.988A1.999 1.999 0 0 1 8.994 11H6.006A1.999 1.999 0 0 1 4 8.994V6.006zm9 0C13 4.898 13.887 4 15.006 4h2.988C19.102 4 20 4.887 20 6.006v2.988A1.999 1.999 0 0 1 17.994 11h-2.988A1.999 1.999 0 0 1 13 8.994V6.006z" fill="currentColor" />
   </symbol>
   <symbol viewbox="0 0 24 24" id="calendar">
      <path d="M8.479 13.917a.857.857 0 0 0 .857-.857v-.5a.858.858 0 1 0-1.714 0v.5c0 .473.383.857.857.857zm3.021 3.375a.857.857 0 0 0 .857-.857v-.5a.858.858 0 1 0-1.714 0v.5c0 .473.383.857.857.857zm-3.021 0a.857.857 0 0 0 .857-.857v-.5a.858.858 0 1 0-1.714 0v.5c0 .473.383.857.857.857zm6.042 0a.857.857 0 0 0 .856-.857v-.5a.857.857 0 1 0-1.714 0v.5c0 .473.384.857.858.857zM11.5 13.917a.857.857 0 0 0 .857-.857v-.5a.858.858 0 1 0-1.714 0v.5c0 .473.383.857.857.857zm3.021 0a.857.857 0 0 0 .856-.857v-.5a.857.857 0 1 0-1.714 0v.5c0 .473.384.857.858.857zm3.823-5.479H4.656v-.61A2.347 2.347 0 0 1 7 5.483h1.187v.639a.828.828 0 1 0 1.657 0v-.639h3.677v.639a.827.827 0 1 0 1.656 0v-.639H16a2.347 2.347 0 0 1 2.344 2.345v.61zm0 8.389A2.347 2.347 0 0 1 16 19.172H7a2.347 2.347 0 0 1-2.344-2.345v-6.733h13.688v6.733zM15.177 3.828a.828.828 0 0 0-1.656 0H9.844a.828.828 0 0 0-1.657 0H7a4.01 4.01 0 0 0-4 4v8.999c0 2.2 1.799 4 4 4h9c2.2 0 4-1.8 4-4V7.828c0-2.201-1.8-4-4-4h-.823z" fill="currentColor" />
   </symbol>
   <symbol viewbox="0 0 24 24" id="cart">
      <path d="M8.674 13.806a.947.947 0 0 1-.881-.59L5.06 6.246a.917.917 0 0 1 .545-1.187A.975.975 0 0 1 5.94 5c.39 0 .744.236.882.59l2.5 6.377h7.138l.694-2.6a.951.951 0 0 1 1.172-.611.919.919 0 0 1 .634 1.145l-.9 3.254a.945.945 0 0 1-.903.65H8.674zM7.764 19c-.896 0-1.624-.71-1.624-1.585s.728-1.587 1.624-1.587c.897 0 1.626.712 1.626 1.587 0 .874-.73 1.585-1.626 1.585zm8.2 0c-.896 0-1.625-.71-1.625-1.585s.729-1.587 1.625-1.587c.897 0 1.625.712 1.625 1.587 0 .874-.728 1.585-1.625 1.585z" fill="currentColor" />
   </symbol>
   <symbol viewbox="0 0 24 24" id="shopping-cart">
      <path d="M8.674 13.806a.947.947 0 0 1-.881-.59L5.06 6.246a.917.917 0 0 1 .545-1.187A.975.975 0 0 1 5.94 5c.39 0 .744.236.882.59l2.5 6.377h7.138l.694-2.6a.951.951 0 0 1 1.172-.611.919.919 0 0 1 .634 1.145l-.9 3.254a.945.945 0 0 1-.903.65H8.674zM7.764 19c-.896 0-1.624-.71-1.624-1.585s.728-1.587 1.624-1.587c.897 0 1.626.712 1.626 1.587 0 .874-.73 1.585-1.626 1.585zm8.2 0c-.896 0-1.625-.71-1.625-1.585s.729-1.587 1.625-1.587c.897 0 1.625.712 1.625 1.587 0 .874-.728 1.585-1.625 1.585z" fill="currentColor" />
   </symbol>
   <symbol viewbox="0 0 24 24" id="chevron">
      <path d="M17.198 9.337a1.151 1.151 0 0 0-1.627 0l-3.304 3.304-3.303-3.304a1.151 1.151 0 0 0-1.627 1.626l4.117 4.118a1.148 1.148 0 0 0 1.627 0l4.117-4.118a1.15 1.15 0 0 0 0-1.626" fill="currentColor" />
   </symbol>
   <symbol viewbox="0 0 24 24" id="close">
      <path d="M13.652 12.025l3.063-3.063a1.149 1.149 0 1 0-1.627-1.625L12.025 10.4l-3.06-3.062a1.15 1.15 0 1 0-1.628 1.625l3.062 3.063-3.062 3.062a1.15 1.15 0 0 0 .813 1.964c.294 0 .59-.112.814-.337l3.061-3.063 3.063 3.063a1.148 1.148 0 0 0 1.627 0 1.151 1.151 0 0 0 0-1.627l-3.063-3.062z" fill="currentColor" />
   </symbol>
   <symbol viewbox="0 0 24 24" id="delete">
      <path d="M16.231 16.665c0 1.286-1.009 2.332-2.248 2.332h-3.967c-1.239 0-2.248-1.046-2.248-2.332V7.336h8.463v9.329zm1.803-11.332h-5.039v-.301C12.995 4.463 12.548 4 12 4c-.549 0-.996.463-.996 1.032v.301h-5.04c-.532 0-.964.45-.964 1.001 0 .509.366.93.838.994v9.337c0 2.39 1.874 4.335 4.178 4.335h3.967c2.304 0 4.178-1.945 4.178-4.335V7.328c.472-.064.839-.485.839-.994 0-.551-.434-1.001-.966-1.001zm-4.201 10.671c.548 0 .995-.463.995-1.031v-3.648c0-.569-.447-1.032-.995-1.032-.549 0-.996.463-.996 1.032v3.648c0 .568.447 1.031.996 1.031zm-3.666 0c.548 0 .995-.463.995-1.031v-3.648c0-.569-.447-1.032-.995-1.032-.549 0-.996.463-.996 1.032v3.648c0 .568.447 1.031.996 1.031z" fill="currentColor" />
   </symbol>
   <symbol viewbox="0 0 24 24" id="delivery">
      <path d="M16.929 18.344A1.346 1.346 0 0 1 15.585 17c0-.741.603-1.344 1.344-1.344.741 0 1.344.603 1.344 1.344 0 .741-.603 1.344-1.344 1.344zm-9.325 0A1.346 1.346 0 0 1 6.26 17a1.345 1.345 0 1 1 1.344 1.344zm7.783-8.14V6.195h2.967l1.611 4.009h-4.578zm6.582.646c-.009-.046-.006-.092-.024-.137l-.01-.023v-.001l-2.24-5.575a.828.828 0 0 0-.773-.509h-3.575A.808.808 0 0 0 14.559 4H5.462c-.458 0-.828.356-.828.795 0 .439.37.795.828.795h8.269v5.409c0 .439.371.795.828.795h5.785v4.53h-.498A2.997 2.997 0 0 0 16.929 14a2.998 2.998 0 0 0-2.917 2.324h-3.491A2.996 2.996 0 0 0 4.604 17c0 1.656 1.344 3 3 3a2.99 2.99 0 0 0 2.843-2.086h3.639A2.991 2.991 0 0 0 16.929 20a2.99 2.99 0 0 0 2.843-2.086h1.4c.458 0 .828-.356.828-.795v-6.12c0-.053-.021-.099-.031-.149zm-13.374.836H5.7c-.457 0-.828.356-.828.795 0 .44.371.796.828.796h2.895c.457 0 .828-.356.828-.796 0-.439-.371-.795-.828-.795zm.828-4.396a.8.8 0 0 0-.807-.795h-5.81A.8.8 0 0 0 2 7.29a.8.8 0 0 0 .806.795h5.81a.8.8 0 0 0 .807-.795zm0 2.596c0-.439-.371-.795-.828-.795H4.284c-.458 0-.828.356-.828.795 0 .439.37.795.828.795h4.311c.457 0 .828-.356.828-.795z" fill="currentColor" />
   </symbol>
   <symbol viewbox="0 0 24 24" id="detail">
      <path d="M15 8.643h-5a.857.857 0 1 0 0 1.714h5a.857.857 0 1 0 0-1.714zM19.344 17A2.347 2.347 0 0 1 17 19.344H8A2.347 2.347 0 0 1 5.656 17V8A2.346 2.346 0 0 1 8 5.656h9A2.347 2.347 0 0 1 19.344 8v9zM17 4H8C5.8 4 4 5.8 4 8v9c0 2.2 1.8 4 4 4h9c2.2 0 4-1.8 4-4V8c0-2.2-1.8-4-4-4zm-2 10.643h-5a.857.857 0 1 0 0 1.714h5a.857.857 0 1 0 0-1.714zm0-3h-5a.857.857 0 1 0 0 1.714h5a.857.857 0 1 0 0-1.714z" fill="currentColor" />
   </symbol>
   <symbol viewbox="0 0 24 24" id="edit-and-type">
      <path d="M11 9.177h-1a.857.857 0 0 0 0 1.715h1a.857.857 0 1 0 0-1.715zm-1 4.715h1a.857.857 0 1 0 0-1.715h-1a.857.857 0 0 0 0 1.715zM22.031 5.14l-.414.415-1.469-1.469.41-.409a.296.296 0 0 1 .132-.021c.224 0 .581.118.911.447.459.458.481.949.43 1.037zm-5.082 5.082l-1.627.159.159-1.627 3.496-3.496 1.468 1.469-3.496 3.495zm5.822-7.29c-.611-.611-1.382-.933-2.082-.932-.498 0-.959.163-1.296.501l-5.502 5.502-.412 4.222 4.221-.412 4.452-4.451c.019-.016.042-.023.06-.04.017-.018.024-.041.04-.061l.95-.95c.811-.811.617-2.331-.431-3.379zm-2.599 7.938a.828.828 0 0 0-.828.828V17.534A2.347 2.347 0 0 1 17 19.878H8a2.347 2.347 0 0 1-2.344-2.344v-9A2.346 2.346 0 0 1 8 6.191h6.384a.828.828 0 1 0 0-1.657H8c-2.2 0-4 1.8-4 4v9c0 2.201 1.8 4 4 4h9c2.2 0 4-1.799 4-4v-5.836a.828.828 0 0 0-.828-.828zM10 16.892h5a.857.857 0 1 0 0-1.715h-5a.857.857 0 0 0 0 1.715z" fill="currentColor" />
   </symbol>
   <symbol viewbox="0 0 24 24" id="external-link">
      <path d="M20.987 3.511a.792.792 0 0 0-.131-.198c-.018-.023-.026-.05-.047-.071-.017-.017-.041-.024-.06-.04a.881.881 0 0 0-.209-.138.87.87 0 0 0-.257-.052c-.021-.001-.038-.012-.06-.012h-3.698a.828.828 0 0 0 0 1.657h1.698l-7.342 7.342a.828.828 0 1 0 1.171 1.172l7.343-7.343v1.698a.828.828 0 0 0 1.656 0V3.829a.817.817 0 0 0-.064-.318m-2.815 7.668a.829.829 0 0 0-.829.828v5.835A2.347 2.347 0 0 1 15 20.187H6a2.347 2.347 0 0 1-2.344-2.345v-9A2.347 2.347 0 0 1 6 6.498H12.383a.828.828 0 1 0 0-1.656H6c-2.2 0-4 1.8-4 4v9c0 2.2 1.8 4 4 4h9c2.2 0 4-1.8 4-4v-5.835a.828.828 0 0 0-.828-.828" fill="currentColor" />
   </symbol>
   <symbol viewbox="0 0 24 24" id="favorites">
    <g id="favorites" stroke="none" stroke-width="1" fill="none">
        <path class="empty-shape" d="M6.52435724,11.1994 L11.9996972,16.9373 L17.4750972,11.1988 C17.4785972,11.1937 17.4825972,11.189 17.4861972,11.1838 C17.9581972,10.5388 18.1099972,9.75217 17.9138972,8.96817 C17.6896972,8.07269 16.9648972,7.35298 16.0666972,7.13417 C15.8705972,7.08698 15.6795972,7.06261 15.4991972,7.06261 C13.7604972,7.06261 12.9552972,9.43172 12.9466972,9.45558 C12.8089972,9.87298 12.4274972,10.1551 12.0001972,10.1551 L11.9936972,10.1551 C11.5633972,10.1519 11.1823972,9.86728 11.0491972,9.44521 C11.0431972,9.4255 10.2539972,7.06261 8.50077724,7.06261 C8.32987724,7.06261 8.14891724,7.08387 7.96394724,7.12587 C7.07173724,7.32654 6.31876724,8.06024 6.09056724,8.95054 C5.88799724,9.74076 6.03828724,10.5341 6.51379724,11.1838 C6.51681724,11.189 6.52083724,11.1942 6.52435724,11.1994 M11.9996972,19 C11.4598972,19 10.9536972,18.7817 10.5746972,18.3845 L4.98725724,12.5289 C4.91286724,12.4506 4.85304724,12.3635 4.80680724,12.2691 C4.04126724,11.1336 3.81055724,9.77556 4.15738724,8.42326 C4.57960724,6.77904 5.90559724,5.47859 7.53619724,5.11044 C7.86191724,5.03733 8.18612724,5 8.50078724,5 C10.1780972,5 11.3040972,5.99711 12.0037972,6.97141 C12.7069972,5.99763 13.8333972,5 15.4991972,5 C15.8339972,5 16.1792972,5.04304 16.5250972,5.12704 C18.1375972,5.51904 19.4429972,6.82467 19.8500972,8.45333 C20.1868972,9.79733 19.9516972,11.1481 19.1886972,12.2759 C19.1433972,12.3676 19.0850972,12.4527 19.0126972,12.5289 L13.4247972,18.3845 C13.0462972,18.7817 12.5395972,19 11.9996972,19" fill="currentColor" />
        <path class="filled-shape" d="M11.9996972,19 C11.4598972,19 10.9536972,18.7817 10.5746972,18.3845 L4.98725724,12.5289 C4.91286724,12.4506 4.85304724,12.3635 4.80680724,12.2691 C4.04126724,11.1336 3.81055724,9.77556 4.15738724,8.42326 C4.57960724,6.77904 5.90559724,5.47859 7.53619724,5.11044 C7.86191724,5.03733 8.18612724,5 8.50078724,5 C10.1780972,5 11.3040972,5.99711 12.0037972,6.97141 C12.7069972,5.99763 13.8333972,5 15.4991972,5 C15.8339972,5 16.1792972,5.04304 16.5250972,5.12704 C18.1375972,5.51904 19.4429972,6.82467 19.8500972,8.45333 C20.1868972,9.79733 19.9516972,11.1481 19.1886972,12.2759 C19.1433972,12.3676 19.0850972,12.4527 19.0126972,12.5289 L13.4247972,18.3845 C13.0462972,18.7817 12.5395972,19 11.9996972,19" fill="currentColor" />
    </g>
   </symbol>
   <symbol viewbox="0 0 24 24" id="filters">
      <path d="M7 15.564a1.346 1.346 0 0 1-1.344-1.344c0-.741.603-1.344 1.344-1.344.741 0 1.344.603 1.344 1.344 0 .741-.603 1.344-1.344 1.344m.857-4.205V4.758C7.857 4.339 7.473 4 7 4s-.857.339-.857.758v6.601A2.991 2.991 0 0 0 4 14.22c0 1.357.907 2.49 2.143 2.861v3.145c0 .428.384.774.857.774s.857-.346.857-.774v-3.145A2.99 2.99 0 0 0 10 14.22a2.99 2.99 0 0 0-2.143-2.861M18 17.844a1.346 1.346 0 0 1-1.344-1.344c0-.741.603-1.344 1.344-1.344.741 0 1.344.603 1.344 1.344 0 .741-.603 1.344-1.344 1.344m.857-4.205V4.758c0-.419-.383-.758-.857-.758-.473 0-.857.339-.857.758v8.881A2.99 2.99 0 0 0 15 16.5c0 1.357.906 2.49 2.143 2.86v.866c0 .428.384.774.857.774.474 0 .857-.346.857-.774v-.866A2.988 2.988 0 0 0 21 16.5a2.99 2.99 0 0 0-2.143-2.861M12.5 9.987a1.346 1.346 0 0 1-1.344-1.344c0-.741.603-1.344 1.344-1.344.741 0 1.344.603 1.344 1.344 0 .741-.603 1.344-1.344 1.344m.857-4.205V4.758c0-.419-.383-.758-.857-.758-.473 0-.857.339-.857.758v1.024A2.99 2.99 0 0 0 9.5 8.643c0 1.357.906 2.49 2.143 2.86v8.723c0 .428.384.774.857.774.474 0 .857-.346.857-.774v-8.723a2.988 2.988 0 0 0 2.143-2.86 2.99 2.99 0 0 0-2.143-2.861" fill="currentColor" />
   </symbol>
   <symbol viewbox="0 0 24 24" id="graph">
      <path d="M16.069 12.5A1.996 1.996 0 0 0 20 12c0-1.112-.896-2-2-2-.938 0-1.709.639-1.93 1.5H12v-5h4.069A1.996 1.996 0 0 0 20 6c0-1.112-.896-2-2-2-.938 0-1.709.639-1.93 1.5H11v6H7.929A1.989 1.989 0 0 0 6 10c-1.113 0-2 .896-2 2 0 1.112.895 2 2 2 .937 0 1.708-.639 1.929-1.5H11v6h5.069A1.996 1.996 0 0 0 20 18c0-1.112-.896-2-2-2-.938 0-1.709.639-1.93 1.5H12v-5h4.069z" fill="currentColor" />
   </symbol>
   <symbol viewbox="0 0 24 24" id="import-from-order">
      <path d="M14.918 4h-4.774C7.349 4 5.062 5.8 5.062 8v1.323c0 .473.371.857.828.857.457 0 .828-.384.828-.857V8c0-1.249 1.6-2.344 3.426-2.344h4.774c1.825 0 3.426 1.095 3.426 2.344v9c0 1.249-1.601 2.344-3.426 2.344h-4.774c-1.826 0-3.426-1.095-3.426-2.344v-1.308c0-.473-.371-.857-.828-.857-.457 0-.828.384-.828.857V17c0 2.2 2.287 4 5.082 4h4.774C17.713 21 20 19.2 20 17V8c0-2.2-2.287-4-5.082-4zm1.22 4.299h-3a.858.858 0 1 0 0 1.714h3a.857.857 0 0 0 0-1.714zm0 6.688h-3a.858.858 0 1 0 0 1.714h3a.857.857 0 0 0 0-1.714zm-7.709-.458A.829.829 0 0 0 9.6 15.7l2.613-2.614a.832.832 0 0 0 .181-.27.803.803 0 0 0 .046-.233c.003-.029.017-.053.017-.083 0-.025-.012-.046-.015-.07a.803.803 0 0 0-.049-.247.846.846 0 0 0-.145-.218c-.014-.016-.018-.035-.034-.05L9.599 9.299a.83.83 0 0 0-1.171 0 .83.83 0 0 0 0 1.172l1.201 1.2H3.828a.829.829 0 0 0 0 1.658h5.801l-1.2 1.2zm7.709-2.886h-1a.858.858 0 1 0 0 1.714h1a.857.857 0 0 0 0-1.714z" fill="currentColor" />
   </symbol>
   <symbol viewbox="0 0 24 24" id="import">
      <path d="M8.429 14.529A.829.829 0 0 0 9.6 15.7l2.614-2.613a.826.826 0 0 0 .179-.271.806.806 0 0 0 .048-.233c.003-.029.017-.053.017-.083 0-.025-.012-.046-.015-.07a.805.805 0 0 0-.05-.247.821.821 0 0 0-.145-.218c-.013-.016-.019-.035-.033-.05L9.599 9.3a.827.827 0 1 0-1.17 1.171l1.2 1.201h-5.8a.83.83 0 0 0-.586 1.414.83.83 0 0 0 .586.243h5.8l-1.2 1.2zM14.919 4h-4.775C7.349 4 5.062 5.8 5.062 8v1.323c0 .474.371.857.828.857.457 0 .828-.383.828-.857V8c0-1.249 1.601-2.344 3.426-2.344h4.775c1.824 0 3.425 1.095 3.425 2.344v9c0 1.249-1.601 2.344-3.425 2.344h-4.775c-1.825 0-3.426-1.095-3.426-2.344v-1.307c0-.474-.371-.857-.828-.857-.457 0-.828.383-.828.857V17c0 2.2 2.287 4 5.082 4h4.775C17.714 21 20 19.2 20 17V8c0-2.2-2.286-4-5.081-4z" fill="currentColor" />
   </symbol>
   <symbol viewbox="0 0 24 24" id="kebab-horizontal">
      <path d="M6 14a2 2 0 1 1 0-4 2 2 0 0 1 0 4zm6 0a2 2 0 1 1 0-4 2 2 0 0 1 0 4zm6 0a2 2 0 1 1 0-4 2 2 0 0 1 0 4z" fill="currentColor" />
   </symbol>
   <symbol viewbox="0 0 24 24" id="kebab-vertical">
      <path d="M10 6a2 2 0 1 1 4 0 2 2 0 0 1-4 0zm0 6a2 2 0 1 1 4 0 2 2 0 0 1-4 0zm0 6a2 2 0 1 1 4 0 2 2 0 0 1-4 0z" fill="currentColor" />
   </symbol>
   <symbol viewbox="0 0 24 24" id="arrow">
       <path d="M13.414 6l6.003 6.002-.004.004L13.42 18l-1.414-1.414L15.59 13H5v-2h10.586L12 7.414z" fill="currentColor" />
   </symbol>
   <symbol viewbox="0 0 24 24" id="line">
      <g id="line" stroke="none" stroke-width="1" fill="none">
         <g transform="translate(0.000000, 11.000000)" fill="currentColor" id="Rectangle">
            <rect x="0" y="0" width="24" height="2" />
         </g>
      </g>
   </symbol>
   <symbol viewbox="0 0 24 24" id="greater">
      <g stroke="none" stroke-width="1" fill="none">
         <g transform="translate(8.000000, 6.000000)" fill="currentColor">
            <polygon points="7.41666 6.00244 1.41422 0 0 1.41418 4.58823 6.00238 0.00576782 10.5848 1.41998 11.999 6.00244 7.41663 7.41266 6.00635" />
         </g>
      </g>
   </symbol>
   <symbol viewbox="0 0 24 24" id="minus">
      <path d="M16 11H8a1 1 0 1 0 0 2h8a1 1 0 0 0 0-2" fill="currentColor" />
   </symbol>
   <symbol viewbox="0 0 24 24" id="next">
      <path d="M14.002 13v2.014a.986.986 0 0 0 1.683.697l3.027-3.015a.986.986 0 0 0 0-1.394l-3.027-3.013a.984.984 0 0 0-1.683.697V11H7a1 1 0 0 0 0 2h7.002z" fill="currentColor" />
   </symbol>
   <symbol viewbox="0 0 24 24" id="plus">
      <path d="M16 11h-3V8a1 1 0 1 0-2 0v3H8a1 1 0 0 0 0 2h3v3a1 1 0 0 0 2 0v-3h3a1 1 0 1 0 0-2" fill="currentColor" />
   </symbol>
   <symbol viewbox="0 0 24 24" id="print">
      <path d="M20.344 14.5c0 .741-.603 1.344-1.344 1.344h-1v-1.648h.229a.827.827 0 1 0 0-1.656H6.771a.828.828 0 1 0 0 1.656H7v1.648H6A1.346 1.346 0 0 1 4.656 14.5v-4c0-.741.603-1.344 1.344-1.344h13c.741 0 1.344.603 1.344 1.344v4zm-4 3.5c0 .741-.603 1.344-1.344 1.344h-5A1.346 1.346 0 0 1 8.656 18v-3.804h7.688V18zM8.656 7c0-.741.603-1.344 1.344-1.344h5c.741 0 1.344.603 1.344 1.344v.5H8.656V7zM19 7.5h-1V7c0-1.65-1.35-3-3-3h-5C8.35 4 7 5.35 7 7v.5H6c-1.65 0-3 1.35-3 3v4c0 1.65 1.35 3 3 3h1v.5c0 1.65 1.35 3 3 3h5c1.65 0 3-1.35 3-3v-.5h1c1.65 0 3-1.35 3-3v-4c0-1.65-1.35-3-3-3zm-.869 2.688h-.362a.621.621 0 1 0 0 1.242h.362a.621.621 0 1 0 0-1.242zM10.638 17.5h3.724c.352 0 .638-.384.638-.857 0-.474-.286-.857-.638-.857h-3.724c-.353 0-.638.383-.638.857 0 .473.285.857.638.857z" fill="currentColor" />
   </symbol>
   <symbol viewbox="0 0 24 24" id="reset">
      <path d="M12 19a7 7 0 1 1 0-14 7 7 0 0 1 0 14zm3.5-9.432L14.43 8.5 12 10.932 9.57 8.5 8.5 9.568l2.43 2.438-2.43 2.426L9.57 15.5 12 13.075l2.43 2.425 1.07-1.068-2.43-2.426 2.43-2.438z" fill="currentColor" />
   </symbol>
   <symbol viewbox="0 0 24 24" id="search">
      <path d="M11.313 16.28a4.973 4.973 0 0 1-4.968-4.967 4.973 4.973 0 0 1 4.968-4.968 4.973 4.973 0 0 1 4.968 4.968 4.973 4.973 0 0 1-4.968 4.968m9.344 2.717l-3.415-3.415a7.272 7.272 0 0 0 1.384-4.27 7.313 7.313 0 1 0-7.313 7.313 7.275 7.275 0 0 0 4.27-1.385l3.415 3.415a1.17 1.17 0 0 0 1.659 0c.458-.458.458-1.2 0-1.658" fill="currentColor" />
   </symbol>

   <symbol viewbox="0 0 24 24" id="show-password">
      <path d="M19.617 11.131C16.888 7.184 13.095 7 12.138 7h-.462c-1.113 0-5.134.328-7.575 4.64-.284.504.103.96.287 1.229C7.12 16.816 10.958 17 11.926 17h.466c1.1 0 5.068-.328 7.506-4.64.284-.504-.094-.96-.281-1.229zm-7.707 2.666a1.592 1.592 0 0 1-1.593-1.594 1.592 1.592 0 1 1 3.188 0c0 .881-.713 1.594-1.595 1.594zm-6.159-1.778c.837-1.316 1.937-2.272 3.278-2.844.206-.088.41-.163.606-.228a3.971 3.971 0 0 0-.843 5.716c-1.02-.494-2.104-1.31-3.041-2.644zm9.062 2.897a3.973 3.973 0 0 0-.706-6.025c1.278.378 2.847 1.225 4.156 3.09-1.034 1.632-2.321 2.488-3.45 2.935z" fill="currentColor" />
   </symbol>
   <symbol viewbox="0 0 24 24" id="tick">
      <defs>
         <path id="tick-a" d="M0 0h12v8.571H0z" />
      </defs>
      <g transform="translate(6 8)" fill="currentColor">
         <mask id="tick-b" fill="#fff">
            <use xlink:href="#tick-a" />
         </mask>
         <path d="M9.776.303A.961.961 0 0 1 11.123.25c.386.353.41.949.053 1.331l-5.862 6.28a.96.96 0 0 1-1.4 0L.252 3.938a.936.936 0 0 1 .054-1.332.96.96 0 0 1 1.346.053l2.962 3.173L9.776.303z" mask="url(#tick-b)" />
      </g>
   </symbol>
   <symbol viewbox="0 0 24 24" id="tier-pricing">
      <path d="M18.441 17c0 1.292-.989 2.344-2.206 2.344h-8.47c-1.216 0-2.206-1.052-2.206-2.344V8c0-1.292.99-2.344 2.206-2.344h8.47c1.217 0 2.206 1.052 2.206 2.344v9zM16.235 4h-8.47C5.695 4 4 5.8 4 8v9c0 2.2 1.694 4 3.765 4h8.47C18.305 21 20 19.2 20 17V8c0-2.2-1.694-4-3.765-4zm-1.411 9.143c-.445 0-.807.383-.807.857v1c0 .474.362.857.807.857.446 0 .807-.383.807-.857v-1c0-.474-.361-.857-.807-.857zm-5.648-4c-.444 0-.806.383-.806.857v5c0 .474.362.857.806.857.447 0 .808-.383.808-.857v-5c0-.474-.361-.857-.808-.857zm2.824 2c-.444 0-.807.383-.807.857v3c0 .474.363.857.807.857.446 0 .808-.383.808-.857v-3c0-.474-.362-.857-.808-.857z" fill="currentColor" />
   </symbol>
   <symbol viewbox="0 0 24 24" id="to-dismiss">
      <path d="M3.652 10.884c0-.374.177-.723.532-1.05.392-.336.793-.504 1.204-.504.402 0 .765.154 1.092.462.308.308.462.672.462 1.092h-3.29zM6.62 8.308a3.25 3.25 0 0 0-1.246-.224c-1.008 0-1.825.359-2.45 1.078C2.308 9.89 2 10.804 2 11.906c0 1.092.29 1.969.868 2.632.588.662 1.387.994 2.394.994.785 0 1.489-.233 2.114-.7.653-.486.98-1.045.98-1.68 0-.467-.243-.7-.728-.7a.628.628 0 0 0-.399.126.79.79 0 0 0-.245.336l-.126.378a1.277 1.277 0 0 1-.546.714c-.28.187-.593.28-.938.28-.523 0-.956-.201-1.302-.602-.364-.392-.546-.901-.546-1.526 0-.009.019-.014.056-.014h4.215c.158 0 .281-.007.37-.021a.295.295 0 0 0 .203-.119.546.546 0 0 0 .084-.28c.01-.121.014-.289.014-.504 0-.896-.29-1.648-.868-2.254a2.963 2.963 0 0 0-.98-.658zm15.652 4.13a.747.747 0 0 0-.532-.196c-.271 0-.481.121-.63.364l-.168.574c-.093.355-.266.628-.518.819a1.398 1.398 0 0 1-.868.287c-.55 0-.979-.219-1.288-.658-.307-.439-.462-1.045-.462-1.82 0-.756.163-1.358.491-1.806.326-.448.76-.672 1.301-.672.635 0 1.023.219 1.162.658-.223.047-.384.133-.483.259-.098.126-.146.292-.146.497 0 .243.095.45.287.623.19.173.426.259.707.259.354 0 .641-.124.86-.371.22-.247.329-.562.329-.945 0-.644-.257-1.181-.769-1.61-.514-.411-1.154-.616-1.918-.616-1.018 0-1.834.355-2.451 1.064-.597.7-.896 1.614-.896 2.744 0 1.083.29 1.955.868 2.618.607.681 1.396 1.022 2.366 1.022.439 0 .845-.08 1.218-.238.373-.159.695-.373.966-.644.206-.233.388-.516.547-.847.158-.332.237-.618.237-.861a.656.656 0 0 0-.21-.504zm-9.366-1.274l-.385-.056-.386-.056a1.67 1.67 0 0 1-.7-.287.644.644 0 0 1-.265-.539c0-.261.116-.476.349-.644.234-.168.519-.252.855-.252.344 0 .641.077.888.231.247.154.376.338.386.553l.014.448c.018.401.242.602.672.602.438 0 .658-.233.658-.7 0-.065-.005-.138-.015-.217a3.506 3.506 0 0 0-.042-.273 2.82 2.82 0 0 1-.042-.434 2.207 2.207 0 0 1 .057-.49c0-.047.002-.096.007-.147a1.38 1.38 0 0 0 .007-.133.46.46 0 0 1 .006-.098.22.22 0 0 0 .007-.056c0-.411-.219-.616-.657-.616-.327 0-.532.131-.616.392-.355-.205-.789-.308-1.302-.308-.411 0-.784.056-1.12.168a2.743 2.743 0 0 0-.868.462 2.065 2.065 0 0 0-.568.714c-.134.28-.203.588-.203.924 0 .364.066.667.196.91.131.243.323.441.575.595.252.154.564.275.937.364.374.089.803.161 1.288.217.822.084 1.233.373 1.233.868a.85.85 0 0 1-.358.707c-.237.182-.539.273-.902.273-.551 0-.997-.103-1.337-.308-.341-.205-.517-.471-.525-.798-.01-.373-.047-.63-.113-.77-.065-.159-.247-.238-.546-.238-.438 0-.658.214-.658.644 0 .131.015.256.042.378.019.103.035.212.05.329.014.117.021.226.021.329 0 .131-.002.231-.007.301-.005.07-.012.138-.022.203-.009.065-.02.14-.034.224a8.838 8.838 0 0 0-.05.336c0 .485.239.728.715.728.4 0 .625-.177.672-.532.504.28 1.063.42 1.68.42.821 0 1.503-.206 2.044-.616.55-.457.826-1.027.826-1.708 0-1.139-.822-1.82-2.464-2.044z" fill="currentColor" />
   </symbol>
   <symbol viewbox="0 0 24 24" id="to-navigate">
      <path d="M8.03 5.244a.829.829 0 0 0-.272-.18.84.84 0 0 0-.233-.047C7.497 5.014 7.472 5 7.443 5c-.026 0-.047.012-.07.015a.792.792 0 0 0-.247.05.803.803 0 0 0-.219.145c-.016.013-.035.018-.05.033L4.242 7.858a.829.829 0 0 0 1.171 1.171l1.2-1.201v9.801a.83.83 0 0 0 1.658 0V7.828l1.2 1.201a.829.829 0 0 0 1.171-1.172L8.03 5.244zm11.076 9.184a.829.829 0 0 0-1.17 0l-1.202 1.201V5.828a.83.83 0 0 0-1.658 0v9.801l-1.2-1.2a.829.829 0 0 0-1.17 1.171l2.613 2.614a.827.827 0 0 0 .27.179c.075.031.154.039.233.048.03.003.054.016.083.016.025 0 .046-.012.071-.014a.835.835 0 0 0 .246-.05.821.821 0 0 0 .218-.145c.016-.014.036-.019.05-.034l2.616-2.615a.829.829 0 0 0 0-1.171z" fill="currentColor" />
   </symbol>
   <symbol viewbox="0 0 24 24" id="to-select">
      <path d="M16.629 7a.831.831 0 0 0-.829.829v5.357H8.829l1.2-1.2a.83.83 0 0 0 0-1.172.83.83 0 0 0-1.171 0l-2.614 2.614a.842.842 0 0 0-.179.271.806.806 0 0 0-.048.233c-.003.028-.016.053-.017.083.001.025.013.046.015.07a.81.81 0 0 0 .05.247.813.813 0 0 0 .145.218c.013.015.019.035.033.05l2.615 2.615a.827.827 0 1 0 1.171-1.171l-1.2-1.201h7.8a.83.83 0 0 0 .829-.828V7.829A.83.83 0 0 0 16.629 7" fill="currentColor" />
   </symbol>
   <symbol viewbox="0 0 24 24" id="upload">
      <path d="M10.697 5A6.705 6.705 0 0 0 4 11.697a6.681 6.681 0 0 0 4.613 6.364.914.914 0 0 0 1.155-.585.917.917 0 0 0-.585-1.156 4.852 4.852 0 0 1-3.351-4.623 4.87 4.87 0 0 1 4.865-4.865c1.983 0 3.805 1.251 4.531 3.113a.919.919 0 0 0 .854.583 3.09 3.09 0 0 1 3.086 3.086 3.09 3.09 0 0 1-3.086 3.085h-1.765a.613.613 0 0 1-.612-.612v-2.475l.761.762a.917.917 0 0 0 1.296-1.297l-2.326-2.325c-.194-.171-.408-.268-.647-.268a.916.916 0 0 0-.649.269l-2.324 2.326a.916.916 0 0 0 1.296 1.294l.761-.761v2.475a2.446 2.446 0 0 0 2.444 2.444h1.765A4.922 4.922 0 0 0 21 13.614a4.926 4.926 0 0 0-4.307-4.88C15.57 6.478 13.23 5 10.697 5z" fill="currentColor" />
   </symbol>
</svg>