<svg width="54" height="60" viewBox="0 0 54 60" fill="none" xmlns="http://www.w3.org/2000/svg">
<path d="M27.9631 0.244432L52.6018 12.5638C53.384 12.9549 53.9055 13.8023 53.9055 14.6496V45.4807C53.9055 46.4584 53.3189 47.3058 52.4063 47.6317L27.9631 59.7556C27.3112 60.0815 26.5291 60.0815 25.8772 59.7556L1.30364 47.4362C0.456274 47.0451 0 46.2629 0 45.4155V14.5845C0 13.6067 0.586638 12.7594 1.49919 12.4335L25.9424 0.244432C26.5942 -0.0814775 27.3112 -0.0814775 27.9631 0.244432ZM18.7072 8.97882L39.2395 19.2124L47.4525 15.1059L26.9202 4.87235L18.7072 8.97882ZM6.45302 15.1059L26.9202 25.3395L36.176 20.7116L15.6437 10.478L6.45302 15.1059ZM4.62792 17.2569V43.9815L25.5513 54.4107V27.686L4.62792 17.2569ZM28.289 54.4758L49.2124 44.0467V17.3221C42.2379 20.7768 35.2634 24.2314 28.289 27.7512V54.4758Z" fill="#30CFA1"/>
</svg>
