<svg width="56" height="60" viewBox="0 0 56 60" fill="none" xmlns="http://www.w3.org/2000/svg">
<path d="M54.8036 14.2598C54.9849 14.6224 55.1662 15.0453 55.287 15.4683C55.5287 16.1934 55.6495 17.0393 55.6495 17.8248V52.0242C55.6495 54.1994 54.7432 56.2538 53.293 57.7039C51.9033 59.0937 49.8489 60 47.6737 60H7.97583C5.8006 60 3.74622 59.0937 2.29607 57.6435C0.906344 56.1934 0 54.1994 0 52.0242V17.8248C0 15.6495 0.906344 13.5952 2.3565 12.145C3.80665 10.6949 5.8006 9.78852 8.03625 9.78852H27.3112C27.9758 7.61329 29.1843 5.67976 30.7553 4.10876L30.8157 4.04834C33.4139 1.571 36.858 0 40.7251 0C44.5921 0 48.1571 1.571 50.6949 4.10876C53.2326 6.64653 54.8036 10.1511 54.8036 14.0785V14.2598ZM40.7251 7.25076C42.5982 7.25076 44.3505 8.03625 45.6193 9.24471C46.8882 10.5136 47.6133 12.2054 47.6133 14.139C47.6133 16.0121 46.8278 17.7644 45.6193 19.0332C44.3505 20.3021 42.5982 21.0876 40.7251 21.0876C38.852 21.0876 37.0997 20.3021 35.8308 19.0332C34.6224 17.8248 33.8369 16.0725 33.8369 14.1994C33.8369 12.2659 34.6224 10.574 35.8308 9.30514C37.0997 8.03625 38.852 7.25076 40.7251 7.25076ZM43.8066 11.1178C43.0211 10.3323 41.9335 9.84894 40.7251 9.84894C39.5166 9.84894 38.429 10.3323 37.6435 11.1178C36.858 11.9033 36.3746 12.9909 36.3746 14.1994C36.3746 15.4079 36.858 16.4955 37.6435 17.281C38.429 18.0665 39.5166 18.5498 40.7251 18.5498C41.9335 18.5498 43.0211 18.0665 43.8066 17.281C44.5921 16.4955 45.0755 15.4079 45.0755 14.1994C45.0755 12.9909 44.5921 11.9033 43.8066 11.1178ZM26.6465 14.0785H7.97583C7.00906 14.0785 6.0423 14.5015 5.37764 15.1662C4.71299 15.8308 4.29003 16.7976 4.29003 17.8248V52.0242C4.29003 53.0514 4.71299 53.9577 5.37764 54.6224C6.0423 55.287 7.00906 55.71 7.97583 55.71H47.6133C48.6405 55.71 49.5468 55.287 50.2115 54.6224C50.9366 53.9577 51.3595 52.9909 51.3595 52.0242V23.2628C49.9094 24.9547 48.0967 26.284 45.9819 27.1299L41.6918 32.3867C41.2689 32.9305 40.423 32.9909 39.8792 32.568C39.8187 32.5076 39.8187 32.4471 39.7583 32.3867L35.4683 27.1299C32.8701 26.1027 30.6949 24.3505 29.1239 22.1148C27.5529 19.8187 26.6465 17.0393 26.6465 14.0785ZM48.8822 5.92145C46.7674 3.86707 43.9275 2.53776 40.7251 2.53776C37.5831 2.53776 34.7432 3.80665 32.6284 5.86103L32.568 5.92145C30.5136 8.03625 29.1843 10.8761 29.1843 14.0785C29.1843 16.4955 29.9094 18.7915 31.2387 20.6042C32.568 22.5378 34.4411 23.9879 36.6767 24.8338C36.858 24.9547 37.0393 25.0755 37.2205 25.2568L40.7251 29.5468L44.2296 25.2568C44.3505 25.0755 44.5317 24.9547 44.7734 24.8338C47.0091 23.9879 48.8822 22.5378 50.2115 20.6042C51.4804 18.7311 52.2659 16.4955 52.2659 14.0785C52.2659 10.8761 50.9366 8.03625 48.8822 5.92145ZM32.0242 30.2719C32.5076 29.7885 33.3535 29.7885 33.8369 30.2719C34.3202 30.7553 34.3202 31.6012 33.8369 32.0846L30.3323 35.6495L37.7039 43.0211L45.9214 34.8036C46.4048 34.3202 47.2508 34.3202 47.7341 34.8036C48.2175 35.287 48.2175 36.1329 47.7341 36.6163L39.4562 44.8338L42.2356 47.5529C42.719 48.0363 42.719 48.8822 42.2356 49.3656C41.7523 49.8489 40.9063 49.8489 40.423 49.3656L36.7976 45.8006L28.5196 37.4622L13.7764 52.2054C13.2931 52.6888 12.4471 52.6888 11.9637 52.2054C11.4804 51.7221 11.4804 50.8761 11.9637 50.3927L26.7069 35.6495L20.6042 29.6073L10.7553 39.4562C10.2719 39.9396 9.42598 39.9396 8.9426 39.4562C8.45921 38.9728 8.45921 38.1269 8.9426 37.6435L18.7915 27.7946L12.5076 21.5106C12.0242 21.0272 12.0242 20.1813 12.5076 19.6979C12.9909 19.2145 13.8369 19.2145 14.3202 19.6979L21.4501 26.8278L28.5196 33.8369L32.0242 30.2719Z" fill="#30CFA1"/>
</svg>
