<svg width="65" height="60" viewBox="0 0 65 60" fill="none" xmlns="http://www.w3.org/2000/svg">
<path d="M2.57042 21.6188L38.5833 0.791214C38.7226 0.651899 38.8619 0.582242 39.0012 0.512584C40.1854 -0.114332 41.5089 -0.114332 42.6931 0.233955C43.8076 0.582242 44.7828 1.34847 45.4794 2.39333C45.6187 2.53265 45.6883 2.74162 45.758 2.88094L55.9976 20.5739H59.2019C60.595 20.5739 61.9185 21.2008 62.8241 22.176C63.66 23.0816 64.2172 24.4051 64.2172 25.7982V54.7757C64.2172 56.1688 63.66 57.4227 62.8241 58.3979C61.8489 59.3731 60.595 60 59.2019 60H17.1985C15.8053 60 14.4818 59.3731 13.5763 58.3979C12.7404 57.4923 12.1831 56.1688 12.1831 54.7757V48.5762L0.759324 28.6542C-0.00690763 27.47 -0.146222 26.0768 0.132407 24.8927C0.411037 23.5692 1.17727 22.385 2.4311 21.6884L2.57042 21.6188ZM54.6045 25.5196H17.2681V25.5892V47.6706V47.7403V54.5667C17.2681 54.706 17.3378 54.7757 17.3378 54.8454H59.2715C59.2019 54.9847 59.2019 54.915 59.2019 54.7757V25.7982C59.2019 25.6589 59.2019 25.5892 59.1322 25.5196H54.6045ZM20.4724 33.0426H29.9458C30.7817 33.0426 31.4086 33.7392 31.4086 34.5054V34.5751V44.0485C31.4086 44.8843 30.712 45.5113 29.9458 45.5113H29.8761H20.4724C19.6365 45.5113 19.0096 44.8147 19.0096 44.0485V43.9091V34.5054C19.0096 33.6695 19.6365 33.0426 20.4724 33.0426ZM28.483 35.9682H21.9352V42.516H28.483V35.9682ZM18.9399 49.6907C18.9399 48.8548 19.6365 48.2279 20.4027 48.2279C21.2386 48.2279 21.8655 48.9245 21.8655 49.6907V52.477C21.8655 53.3129 21.1689 53.9398 20.4027 53.9398C19.5668 53.9398 18.9399 53.2432 18.9399 52.477V49.6907ZM32.941 49.6907C32.941 48.8548 33.6376 48.2279 34.4038 48.2279C35.2397 48.2279 35.8666 48.9245 35.8666 49.6907V52.477C35.8666 53.3129 35.1701 53.9398 34.4038 53.9398C33.568 53.9398 32.941 53.2432 32.941 52.477V49.6907ZM46.9422 49.6907C46.9422 48.8548 47.6387 48.2279 48.405 48.2279C49.2409 48.2279 49.8678 48.9245 49.8678 49.6907V52.477C49.8678 53.3129 49.1712 53.9398 48.405 53.9398C47.5691 53.9398 46.9422 53.2432 46.9422 52.477V49.6907ZM23.0497 49.6907C23.0497 48.8548 23.7463 48.2279 24.5125 48.2279C25.3484 48.2279 25.9753 48.9245 25.9753 49.6907V52.477C25.9753 53.3129 25.2787 53.9398 24.5125 53.9398C23.6766 53.9398 23.0497 53.2432 23.0497 52.477V49.6907ZM37.0508 49.6907C37.0508 48.8548 37.7474 48.2279 38.5136 48.2279C39.3495 48.2279 39.9764 48.9245 39.9764 49.6907V52.477C39.9764 53.3129 39.2799 53.9398 38.5136 53.9398C37.6777 53.9398 37.0508 53.2432 37.0508 52.477V49.6907ZM51.052 49.6907C51.052 48.8548 51.7485 48.2279 52.5148 48.2279C53.3507 48.2279 53.9776 48.9245 53.9776 49.6907V52.477C53.9776 53.3129 53.281 53.9398 52.5148 53.9398C51.6789 53.9398 51.052 53.2432 51.052 52.477V49.6907ZM27.1595 49.6907C27.1595 48.8548 27.856 48.2279 28.6223 48.2279C29.4582 48.2279 30.0851 48.9245 30.0851 49.6907V52.477C30.0851 53.3129 29.3885 53.9398 28.6223 53.9398C27.856 53.9398 27.1595 53.3129 27.1595 52.477V49.6907ZM41.1606 49.6907C41.1606 48.8548 41.8572 48.2279 42.6234 48.2279C43.4593 48.2279 44.0862 48.9245 44.0862 49.6907V52.477C44.0862 53.3129 43.3896 53.9398 42.6234 53.9398C41.7875 53.9398 41.1606 53.2432 41.1606 52.477V49.6907ZM55.1617 49.6907C55.1617 48.8548 55.7887 48.2279 56.6246 48.2279C57.4604 48.2279 58.0874 48.9245 58.0874 49.6907V52.477C58.0874 53.3129 57.3908 53.9398 56.6246 53.9398C55.7887 53.9398 55.1617 53.2432 55.1617 52.477V49.6907ZM41.2303 4.97066L5.00842 25.8679H4.93877H4.86911H4.93877C4.93877 25.9375 4.93877 26.0768 5.00842 26.1465L12.2528 38.6848V25.7982C12.2528 23.0119 14.4818 20.5739 17.1985 20.5739H50.3554L41.5089 5.24929L41.4392 5.17963C41.3696 5.04032 41.2999 4.97066 41.2303 4.97066Z" fill="#30CFA1"/>
</svg>
