<svg width="48" height="60" viewBox="0 0 48 60" fill="none" xmlns="http://www.w3.org/2000/svg">
<path d="M45.4884 25.6744C44.3721 24.4186 42.6977 23.7209 41.0233 23.7209H40.4651V16.7442C40.4651 12.1395 38.6512 7.95349 35.5814 4.88372C32.5116 1.95349 28.3256 0 23.7209 0C19.1163 0 15.0698 1.81395 12 4.74419L11.8605 4.88372C8.7907 7.95349 6.83721 12.1395 6.83721 16.8837V23.8605H6.4186C4.60465 23.8605 3.06977 24.5581 1.95349 25.6744C0.697674 26.7907 0 28.4651 0 30.1395V53.5814C0 55.3953 0.697674 56.9302 1.95349 58.186C3.06977 59.3023 4.60465 60 6.4186 60H41.0233C42.6977 60 44.2326 59.3023 45.3488 58.3256L45.4884 58.186C46.7442 56.9302 47.4419 55.3953 47.4419 53.5814V30.1395C47.4419 28.4651 46.7442 26.7907 45.4884 25.6744ZM12.1395 16.8837C12.1395 13.6744 13.3953 10.8837 15.4884 8.7907L15.6279 8.65116C17.7209 6.55814 20.6512 5.30233 23.7209 5.30233C26.9302 5.30233 29.7209 6.55814 31.814 8.65116C33.907 10.7442 35.1628 13.6744 35.1628 16.7442V23.7209H12.1395V16.8837ZM42.1395 53.5814C42.1395 53.8605 42 54.1395 41.8605 54.4186V54.5581C41.5814 54.5581 41.3023 54.6977 41.0233 54.6977H6.4186C6.13953 54.6977 5.86047 54.5581 5.5814 54.4186C5.44186 54.1395 5.30233 53.8605 5.30233 53.5814V30.1395C5.30233 29.8605 5.44186 29.5814 5.5814 29.3023C5.72093 29.0233 6 29.0233 6.4186 29.0233H41.0233C41.3023 29.0233 41.5814 29.1628 41.8605 29.3023C42.1395 29.4419 42.1395 29.7209 42.1395 30.1395V53.5814ZM23.7209 33.2093C21.907 33.2093 20.3721 33.907 19.2558 35.0233C18.1395 36.1395 17.4419 37.8139 17.4419 39.4884C17.4419 41.3023 18.1395 42.8372 19.2558 43.9535C20.093 44.7907 21.0698 45.3488 22.186 45.6279V48.8372C22.186 49.6744 22.8837 50.3721 23.7209 50.3721C24.5581 50.3721 25.2558 49.6744 25.2558 48.8372V45.7674C26.3721 45.4884 27.3488 44.9302 28.186 44.093C29.3023 42.9767 30 41.3023 30 39.6279C30 37.8139 29.3023 36.2791 28.186 35.1628C27.0698 33.907 25.5349 33.2093 23.7209 33.2093ZM25.9535 41.8605C25.3953 42.4186 24.5581 42.8372 23.7209 42.8372H23.5814C22.7442 42.6977 22.0465 42.4186 21.4884 41.8605C20.9302 41.3023 20.5116 40.4651 20.5116 39.4884C20.5116 38.6512 20.9302 37.814 21.4884 37.2558C22.0465 36.6977 22.8837 36.2791 23.7209 36.2791C24.5581 36.2791 25.3953 36.6977 25.9535 37.2558C26.5116 37.814 26.9302 38.6512 26.9302 39.4884C26.9302 40.4651 26.5116 41.3023 25.9535 41.8605Z" fill="#30CFA1"/>
</svg>
