<?xml version="1.0" encoding="utf-8"?>

<svg id="minium-logo" width="129" height="37" viewBox="0 0 129 37" fill="none" xmlns="http://www.w3.org/2000/svg">
	<path fill-rule="evenodd" clip-rule="evenodd" d="M62.115 27.3397L62.1155 27.3407C62.1857 27.6451 62.0689 27.9494 61.8347 27.9494H59.2818C58.5089 27.9494 58.0639 27.4107 58.0639 26.7081V21.5555C58.0639 20.3845 57.2676 19.869 56.3074 19.869C55.5345 19.869 54.8319 20.2671 54.1995 20.8995V25.7944C54.223 26.497 54.2932 26.9186 54.3869 27.3402C54.4572 27.6447 54.3401 27.9489 54.1059 27.9489H51.553C50.7801 27.9489 50.3351 27.4102 50.3351 26.7076V21.555C50.3351 20.384 49.5388 19.8685 48.5786 19.8685C47.8057 19.8685 47.0794 20.2667 46.4705 20.899V27.4802C46.4705 27.7379 46.2597 27.9484 46.0021 27.9484H43.0511C42.7934 27.9484 42.6061 27.7379 42.6061 27.4802V16.8236C42.6061 16.566 42.7934 16.3552 43.0511 16.3552H45.2526C45.5805 16.566 45.9084 16.9641 46.166 17.292C47.0092 16.7067 48.0865 16.2149 49.3512 16.2149C50.8267 16.2149 52.2317 16.8004 53.1451 17.8778C54.0817 17.058 55.4167 16.2149 57.0796 16.2149C59.6324 16.2149 61.9277 17.948 61.9277 20.8522V25.794C61.9511 26.4966 62.0213 26.9181 62.115 27.3397ZM67.0044 13.2171C65.9037 13.2171 64.9903 12.3271 64.9903 11.2029C64.9903 10.1021 65.9037 9.21213 67.0044 9.21213C68.1052 9.21213 69.0186 10.1021 69.0186 11.2029C69.0186 12.3271 68.1052 13.2171 67.0044 13.2171ZM68.4799 16.3554C68.7376 16.3554 68.9484 16.5662 68.9484 16.8238V27.4568C68.9484 27.7613 68.761 27.9484 68.5034 27.9484H66.3016C65.5289 27.9484 65.0839 27.4097 65.0839 26.6837V16.8236C65.0839 16.566 65.2713 16.3552 65.5524 16.3552L68.4799 16.3554ZM84.0253 27.3397L84.0258 27.3399C84.096 27.6444 83.9789 27.9487 83.7445 27.9487H81.1916C80.4187 27.9487 79.9738 27.41 79.9738 26.7074V21.5548C79.9738 20.4072 79.1775 19.8451 78.2406 19.8451C77.4677 19.8451 76.7415 20.173 76.1091 20.7351V27.4802C76.1091 27.7379 75.8983 27.9484 75.6405 27.9484H72.6895C72.4318 27.9484 72.2445 27.7379 72.2445 27.4802V16.8236C72.2445 16.566 72.4318 16.3552 72.6895 16.3552H74.8912C75.2191 16.566 75.547 16.9407 75.8049 17.292C76.6478 16.6831 77.7251 16.2147 78.9899 16.2147C81.5427 16.2147 83.8379 17.9244 83.8379 20.8522V25.794C83.8614 26.4966 83.9316 26.9181 84.0253 27.3397ZM89.0552 13.2171C87.9545 13.2171 87.0411 12.3271 87.0411 11.2029C87.0411 10.1021 87.9545 9.21213 89.0552 9.21213C90.156 9.21213 91.0694 10.1021 91.0694 11.2029C91.0694 12.3271 90.156 13.2171 89.0552 13.2171ZM90.5307 16.3554C90.7884 16.3554 90.9992 16.5662 90.9992 16.8238V27.4568C90.9992 27.7613 90.8118 27.9484 90.5542 27.9484H88.3524C87.5797 27.9484 87.1348 27.4097 87.1348 26.6837V16.8236C87.1348 16.566 87.3221 16.3552 87.6032 16.3552L90.5307 16.3554ZM105.42 16.3554L105.42 16.3547C105.678 16.3547 105.865 16.5655 105.865 16.8231V27.4798C105.865 27.7374 105.678 27.9479 105.42 27.9479H103.078C102.867 27.7374 102.563 27.3627 102.305 27.0114C101.462 27.6203 100.385 28.0882 99.1202 28.0882C96.5907 28.0882 94.2723 26.3556 94.2723 23.4514V18.4628C94.2489 17.7602 94.1786 17.3386 94.085 16.9171C94.0147 16.6128 94.1318 16.3084 94.366 16.3084H96.9191C97.6917 16.3084 98.137 16.847 98.137 17.5496V22.749C98.137 23.9201 98.9333 24.4356 99.8933 24.4356C100.666 24.4356 101.392 24.0374 102.001 23.405V16.8238C102.001 16.5662 102.212 16.3554 102.47 16.3554H105.42ZM128.367 27.3397L128.367 27.3407C128.438 27.6451 128.321 27.9494 128.086 27.9494H125.534C124.761 27.9494 124.316 27.4107 124.316 26.7081V21.5555C124.316 20.3845 123.519 19.869 122.559 19.869C121.786 19.869 121.084 20.2671 120.451 20.8995V25.7944C120.475 26.497 120.545 26.9186 120.639 27.3402C120.709 27.6447 120.592 27.9489 120.358 27.9489H117.805C117.032 27.9489 116.587 27.4102 116.587 26.7076V21.555C116.587 20.384 115.791 19.8685 114.83 19.8685C114.058 19.8685 113.331 20.2667 112.722 20.899V27.4802C112.722 27.7379 112.512 27.9484 112.254 27.9484H109.303C109.045 27.9484 108.858 27.7379 108.858 27.4802V16.8236C108.858 16.566 109.045 16.3552 109.303 16.3552H111.504C111.832 16.566 112.16 16.9641 112.418 17.292C113.261 16.7067 114.338 16.2149 115.603 16.2149C117.079 16.2149 118.484 16.8004 119.397 17.8778C120.334 17.058 121.669 16.2149 123.331 16.2149C125.884 16.2149 128.179 17.948 128.179 20.8522V25.794C128.203 26.4966 128.273 26.9181 128.367 27.3397Z" fill="#5C5E5E"/>
	<path fill-rule="evenodd" clip-rule="evenodd" d="M16.3699 31.2648L5.30964 24.8785V15.1701L15.0434 20.7906C15.4545 21.0278 15.9128 21.1464 16.3699 21.1464C16.8282 21.1464 17.2865 21.0278 17.6976 20.7906L27.4314 15.1701V24.8785L16.3699 31.2648ZM16.3699 5.71958L24.7783 10.5732L16.3699 15.4268L7.96273 10.5732L16.3699 5.71958ZM32.7387 10.5364C32.7387 10.5099 32.7376 10.4834 32.7364 10.4569C32.7341 10.4039 32.7295 10.3498 32.7249 10.298C32.7215 10.2738 32.7203 10.2508 32.7169 10.2278C32.7076 10.1587 32.6961 10.0896 32.6812 10.0228C32.6754 9.99515 32.6696 9.96982 32.6627 9.94333C32.6501 9.88921 32.6339 9.83394 32.6167 9.77982C32.6109 9.76024 32.6075 9.74182 32.6005 9.72339C32.5764 9.652 32.5487 9.58291 32.5188 9.51382C32.5107 9.49654 32.5027 9.47697 32.4935 9.45855C32.4267 9.31461 32.3472 9.17527 32.2551 9.04515C32.2436 9.02903 32.2309 9.01291 32.2205 8.99679C32.1756 8.93576 32.1296 8.87818 32.0801 8.82176C32.0674 8.80679 32.0524 8.79297 32.0398 8.77915C32.0006 8.7377 31.9615 8.69509 31.92 8.65594C31.9004 8.63867 31.882 8.61909 31.8613 8.60067C31.8095 8.55461 31.7565 8.5097 31.7012 8.46709C31.6828 8.45212 31.6621 8.43945 31.6436 8.42564C31.601 8.3957 31.5573 8.36576 31.5135 8.33812C31.4905 8.322 31.4675 8.30703 31.4433 8.29436C31.4329 8.28745 31.4237 8.28055 31.4122 8.27479L17.6976 0.355818C16.8755 -0.118606 15.8656 -0.118606 15.0434 0.355818L1.3277 8.27479C1.31848 8.28055 1.30812 8.28745 1.29891 8.29321C1.27358 8.30703 1.24939 8.32315 1.22521 8.33927C1.18261 8.36576 1.14115 8.39455 1.0997 8.42333C1.08012 8.43945 1.05824 8.45212 1.03867 8.46824C0.984546 8.5097 0.931576 8.55461 0.880909 8.59951C0.85903 8.61909 0.839455 8.63867 0.818727 8.65709C0.779576 8.69624 0.740424 8.73655 0.703576 8.77685C0.688606 8.79182 0.674788 8.80679 0.659818 8.82176C0.611455 8.87818 0.565394 8.93576 0.521636 8.99564C0.510121 9.01291 0.497455 9.02903 0.485939 9.0463C0.393818 9.17642 0.314364 9.31461 0.247576 9.45855C0.238364 9.47697 0.229152 9.49655 0.222242 9.51497C0.192303 9.58291 0.164667 9.652 0.140485 9.72224C0.133576 9.74297 0.12897 9.76139 0.123212 9.78097C0.105939 9.83509 0.0909697 9.88921 0.078303 9.94218C0.0713939 9.96982 0.0644848 9.99515 0.0587273 10.0228C0.0449091 10.0896 0.0322424 10.1587 0.0241818 10.2266C0.0207273 10.2508 0.0184242 10.275 0.0161212 10.2992C0.0103636 10.351 0.00690909 10.4028 0.00460606 10.4558C0.00345455 10.4822 0.00230303 10.5099 0.00115152 10.5375C0.00115152 10.549 0 10.5617 0 10.5732V26.4112C0 27.3588 0.506667 28.2352 1.3277 28.7096L15.0434 36.6285C15.4545 36.8658 15.9128 36.9844 16.3699 36.9844C16.8282 36.9844 17.2865 36.8658 17.6976 36.6285L31.4122 28.7096C32.2344 28.2352 32.741 27.3588 32.741 26.4112V10.5732C32.741 10.5617 32.7399 10.549 32.7387 10.5364Z" fill="#B2C6EC"/>
</svg>