<?xml version="1.0" encoding="UTF-8"?>
<svg width="13px" height="8px" viewBox="0 0 13 8" version="1.1" xmlns="http://www.w3.org/2000/svg" xmlns:xlink="http://www.w3.org/1999/xlink">
    <!-- Generator: Sketch 52.4 (67378) - http://www.bohemiancoding.com/sketch -->
    <title>Back Icon</title>
    <desc>Created with Sketch.</desc>
    <g id="Symbols" stroke="none" stroke-width="1" fill="none" fill-rule="evenodd">
        <g id="Back-Icon" fill="#5C5E5E">
            <path d="M4.99780273,5 L4.99780273,5.08086 L4.99780273,7.01405842 C4.99780273,7.41313001 4.75718604,7.77218774 4.3890585,7.92477394 C4.26688284,7.97545816 4.13883848,8 4.01186116,8 C3.75523892,8 3.50341834,7.89969858 3.31455291,7.71136667 L0.28849995,4.69592198 C-0.09616665,4.31072186 -0.09616665,3.6865056 0.28849995,3.301839 L3.31455291,0.289129635 C3.5962505,0.00636500508 4.02039745,-0.0773973475 4.3890585,0.0751888489 C4.75718604,0.227775045 4.99780273,0.587366291 4.99780273,0.985904363 L4.99780273,3 L12,3 C12.5522847,3 13,3.44771525 13,4 C13,4.55228475 12.5522847,5 12,5 L4.99780273,5 Z" transform="translate(6.500000, 4.000000) rotate(180.000000) translate(-6.500000, -4.000000) "></path>
        </g>
    </g>
</svg>